<?xml version="1.0" encoding="UTF-8" standalone="no"?>
<!-- Created with Inkscape (http://www.inkscape.org/) -->

<svg
   xmlns:dc="http://purl.org/dc/elements/1.1/"
   xmlns:cc="http://creativecommons.org/ns#"
   xmlns:rdf="http://www.w3.org/1999/02/22-rdf-syntax-ns#"
   xmlns:svg="http://www.w3.org/2000/svg"
   xmlns="http://www.w3.org/2000/svg"
   xmlns:xlink="http://www.w3.org/1999/xlink"
   xmlns:sodipodi="http://sodipodi.sourceforge.net/DTD/sodipodi-0.dtd"
   xmlns:inkscape="http://www.inkscape.org/namespaces/inkscape"
   version="1.0"
   width="600"
   height="199.41692"
   id="svg2424"
   inkscape:version="0.48.2 r9819"
   sodipodi:docname="archwomen2.svg">
  <metadata
     id="metadata3144">
    <rdf:RDF>
      <cc:Work
         rdf:about="">
        <dc:format>image/svg+xml</dc:format>
        <dc:type
           rdf:resource="http://purl.org/dc/dcmitype/StillImage" />
        <dc:title></dc:title>
      </cc:Work>
    </rdf:RDF>
  </metadata>
  <sodipodi:namedview
     pagecolor="#ffffff"
     bordercolor="#666666"
     borderopacity="1"
     objecttolerance="10"
     gridtolerance="10"
     guidetolerance="10"
     inkscape:pageopacity="0"
     inkscape:pageshadow="2"
     inkscape:window-width="1280"
     inkscape:window-height="675"
     id="namedview3142"
     showgrid="false"
     inkscape:zoom="1.4142136"
     inkscape:cx="349.59078"
     inkscape:cy="139.93995"
     inkscape:window-x="0"
     inkscape:window-y="26"
     inkscape:window-maximized="1"
     inkscape:current-layer="text3261" />
  <defs
     id="defs2426">
    <linearGradient
       x1="112.49854"
       y1="6.1372099"
       x2="112.49853"
       y2="129.3468"
       id="path1082_2_"
       gradientUnits="userSpaceOnUse"
       gradientTransform="translate(287,-83)">
      <stop
         id="stop193"
         style="stop-color:#ffffff;stop-opacity:0"
         offset="0" />
      <stop
         id="stop195"
         style="stop-color:#ffffff;stop-opacity:0.27450982"
         offset="1" />
      <midPointStop
         offset="0"
         style="stop-color:#FFFFFF"
         id="midPointStop197" />
      <midPointStop
         offset="0.5"
         style="stop-color:#FFFFFF"
         id="midPointStop199" />
      <midPointStop
         offset="1"
         style="stop-color:#000000"
         id="midPointStop201" />
    </linearGradient>
    <linearGradient
       x1="541.33502"
       y1="104.50665"
       x2="606.91248"
       y2="303.14029"
       id="linearGradient2544"
       xlink:href="#path1082_2_"
       gradientUnits="userSpaceOnUse"
       gradientTransform="matrix(-0.3937741,0,0,0.393752,357.51969,122.00151)" />
    <linearGradient
       id="linearGradient3388">
      <stop
         id="stop3390"
         style="stop-color:#000000;stop-opacity:0"
         offset="0" />
      <stop
         id="stop3392"
         style="stop-color:#000000;stop-opacity:0.37113401"
         offset="1" />
    </linearGradient>
    <linearGradient
       x1="490.72305"
       y1="237.72447"
       x2="490.72305"
       y2="183.9644"
       id="linearGradient4416"
       xlink:href="#linearGradient3388"
       gradientUnits="userSpaceOnUse"
       gradientTransform="matrix(0.749107,0,0,0.749107,-35.459862,91.44108)" />
  </defs>
  <g
     transform="scale(0.92895768,1.0764753)"
     style="font-size:95.92753601px;font-style:normal;font-variant:normal;font-weight:normal;font-stretch:normal;text-align:start;line-height:125%;letter-spacing:0px;word-spacing:0px;writing-mode:lr-tb;text-anchor:start;fill:#1793d1;fill-opacity:1;stroke:none;font-family:Liberation Sans;-inkscape-font-specification:Liberation Sans"
     id="text3261">
    <g
       id="g4057"
       transform="matrix(0.88007092,0,0,0.88007092,-1.4852546,11.102078)">
      <g
         style="fill:#ffffff;fill-opacity:1"
         id="g2809"
         transform="matrix(0.60055894,0,0,0.51825977,0.40871232,-94.045669)">
        <path
           inkscape:connector-curvature="0"
           style="fill:#ffffff;fill-opacity:1;fill-rule:evenodd;stroke:none"
           id="path2284"
           d="m 339.96875,309.09375 c -14.47141,-0.0239 -26.4812,2.94367 -31.125,4.5625 l -4.78125,25.8125 c -0.0116,0.0951 23.79543,-6.34855 34.28125,-5.96875 17.36158,0.62381 18.95948,6.63541 18.65625,14.75 0.29595,0.47462 -4.47933,-7.33192 -19.5,-7.59375 -18.94961,-0.32687 -45.69284,6.70947 -45.65625,35.3125 -0.51086,32.17412 24.03361,41.63882 40.75,41.8125 15.02821,-0.27364 22.0777,-5.69136 25.9375,-8.59375 5.07124,-5.30236 10.87308,-10.63447 16.40625,-17.03125 -5.23567,9.51278 -9.77472,16.0898 -14.5,21.125 l 0,4.25 22.84375,-3.84375 0.15625,-62.09375 c -0.23141,-8.78839 5.04123,-42.41827 -43.46875,-42.5 z m -3.28125,54.0625 c 9.46889,0.12995 20.32788,4.79708 20.34375,16.03125 0.049,10.21821 -12.80005,15.71183 -21.15625,15.625 -8.35976,-0.0868 -19.45093,-6.56982 -19.5,-16.53125 0.16016,-8.90444 10.45953,-15.35418 20.3125,-15.125 z" />
        <path
           inkscape:connector-curvature="0"
           style="fill:#ffffff;fill-opacity:1;fill-rule:evenodd;stroke:none"
           id="path2286"
           d="m 398.50106,314.83145 -0.15505,102.82693 26.61213,-5.12724 0.0449,-58.30157 c 0.006,-8.68089 12.40554,-18.82451 27.9627,-18.66287 3.30202,-5.97408 9.5087,-21.24219 11.02088,-24.71514 -34.75649,-0.0833 -35.19897,9.98993 -41.24398,14.94517 -0.0631,-9.45285 -0.0213,-15.12741 -0.0213,-15.12741 l -24.2202,4.16213 z" />
        <path
           inkscape:connector-curvature="0"
           style="fill:#ffffff;fill-opacity:1;fill-rule:evenodd;stroke:none"
           id="path2288"
           d="m 548.2688,328.33058 c -0.25696,-0.12068 -13.87938,-15.93419 -41.26638,-16.0589 -25.65249,-0.42638 -54.42578,9.51895 -54.88631,52.5328 0.22457,37.81852 27.6402,52.59809 55.0314,52.88627 29.31292,0.30451 40.97654,-18.32947 41.67615,-18.79124 -3.49762,-3.0321 -16.59792,-16.0131 -16.59792,-16.0131 0,0 -8.18236,11.65102 -24.05802,11.79913 -15.87942,0.1512 -29.68245,-12.27325 -29.87805,-29.60905 -0.20349,-17.33595 12.68881,-26.72821 29.99725,-27.48687 14.98466,-0.003 23.6297,9.67334 23.6297,9.67334 l 16.35218,-18.93238 z" />
        <path
           inkscape:connector-curvature="0"
           style="fill:#ffffff;fill-opacity:1;fill-rule:evenodd;stroke:none"
           id="path2290"
           d="m 581.8125,278.84375 -25.125,5.90625 0.1875,133.9375 24.75,-4.46875 0.28125,-63.03125 c 0.0529,-6.60927 9.56127,-16.75916 25.4375,-16.4375 15.17973,0.15775 18.57236,10.11767 18.53125,11.375 l 0.4375,72.96875 24.40625,-4.3125 0.0937,-77.375 c 0.1607,-7.44539 -16.30833,-23.16954 -42.78125,-23.28125 -12.58087,0.0202 -19.54815,2.86825 -23.09375,4.96875 -6.06656,4.68565 -12.9998,9.17543 -19.8125,14.90625 6.29809,-8.09099 11.58551,-13.68516 16.75,-17.84375 l -0.0625,-37.3125 z" />
      </g>
      <path
         transform="scale(1.0764753,0.92895768)"
         inkscape:connector-curvature="0"
         style="fill:#1793d1;fill-opacity:1;fill-rule:evenodd;stroke:none"
         id="path2518"
         d="m 94.326591,19.881446 c -7.39687,18.135158 -11.858304,29.997682 -20.09375,47.59375 5.04936,5.35232 11.247211,11.585364 21.3125,18.625 -10.821173,-4.452846 -18.202537,-8.923398 -23.71875,-13.5625 -10.5398,21.992913 -27.052636,53.320844 -60.5625,113.531254 26.337628,-15.20517 46.754089,-24.57932 65.78125,-28.15625 -0.817034,-3.51405 -1.28155,-7.31518 -1.25,-11.28125 l 0.03125,-0.84375 c 0.417917,-16.87382 9.195665,-29.84979 19.59375,-28.96875 10.398089,0.88104 18.480409,15.28242 18.062499,32.15625 -0.0786,3.17512 -0.43674,6.22955 -1.0625,9.0625 18.82058,3.68164 39.01873,13.03179 65,28.03125 -5.123,-9.4318 -9.69572,-17.93388 -14.0625,-26.03125 -6.87839,-5.33121 -14.05289,-12.2698 -28.6875,-19.78125 10.05899,2.61375 17.2611,5.62932 22.875,9 C 113.14706,66.594607 109.55175,55.610555 94.326591,19.881446 z" />
      <g
         transform="matrix(1.3590504,0,0,1.604764,-736.1937,-260.89407)"
         style="font-size:8.44138241px;font-style:normal;font-weight:normal;fill:#ffffff;fill-opacity:1;stroke:none;font-family:DejaVu Sans Mono"
         id="text2634">
        <path
           inkscape:connector-curvature="0"
           style="fill:#ffffff;fill-opacity:1"
           id="path3660"
           d="m 685.46692,263.83624 0,-5.32944 -1.99082,0 0,-0.71307 4.7895,0 0,0.71307 -1.99906,0 0,5.32944 -0.79962,0" />
        <path
           inkscape:connector-curvature="0"
           style="fill:#ffffff;fill-opacity:1"
           id="path3662"
           d="m 689.0982,263.83624 0,-6.04251 1.20355,0 1.43026,4.2784 c 0.13189,0.39843 0.22806,0.69658 0.28852,0.89442 0.0687,-0.21983 0.17586,-0.5427 0.3215,-0.96862 l 1.44674,-4.2042 1.07578,0 0,6.04251 -0.77077,0 0,-5.05741 -1.75587,5.05741 -0.72131,0 -1.74763,-5.14396 0,5.14396 -0.77077,0" />
      </g>
      <path
         sodipodi:nodetypes="cccccccccccccccccccccccccccccccccccc"
         inkscape:connector-curvature="0"
         id="path4038"
         d="m 473.93885,116.58772 -14.04171,6.28663 -11.42887,-41.921456 c -0.34354,-1.18656 -0.71825,-2.591748 -1.12415,-4.215565 -0.37476,-1.623726 -0.71825,-3.169432 -1.03047,-4.637123 -0.37476,-1.7174 -0.74948,-3.466077 -1.12415,-5.246037 -0.40599,1.811186 -0.79632,3.575477 -1.17099,5.292877 -0.34354,1.498917 -0.70264,3.044623 -1.07731,4.637122 -0.37476,1.592592 -0.73387,2.982166 -1.07731,4.168726 l -10.40179,36.843796 -11.80019,5.07766 -17.47711,-58.743215 7.35975,-7.253804 11.85042,41.921457 c 0.53083,1.967282 1.03045,3.918932 1.49887,5.854952 0.4996,1.93605 0.92116,3.66912 1.26467,5.1992 0.40592,1.81114 0.78064,3.52859 1.12415,5.15236 0.46837,-2.15462 0.95238,-4.27801 1.45203,-6.37019 0.21856,-0.87433 0.43714,-1.7955 0.65575,-2.76354 0.21856,-0.968 0.43715,-1.9204 0.65576,-2.85722 0.24978,-0.93677 0.48398,-1.82672 0.70259,-2.66985 0.24979,-0.87432 0.46837,-1.670593 0.65576,-2.388825 l 11.4757,-41.078344 8.57165,0 11.47571,41.078344 c 0.1873,0.718232 0.39027,1.514505 0.60892,2.388825 0.24975,0.84313 0.48394,1.73308 0.70259,2.66985 0.24975,0.90559 0.48395,1.84238 0.70259,2.81038 0.21853,0.96804 0.43711,1.88921 0.65576,2.76354 0.49956,2.09218 0.98357,4.23119 1.45203,6.41703 0.0312,0 0.17168,-0.53084 0.42155,-1.59255 0.24975,-1.09292 0.56201,-2.45126 0.9368,-4.07505 0.37465,-1.62376 0.78059,-3.37243 1.21783,-5.24603 0.46832,-1.9048 0.93672,-3.66909 1.40518,-5.292882 l 10.8225,-36.843794 10.16165,-5.077663" />
      <path
         id="path4040"
         d="m 537.93194,97.487279 c -5e-5,8.868321 -1.9517,15.472701 -5.85495,19.813161 -3.90334,4.34047 -9.57093,6.5107 -17.00278,6.5107 -3.52861,0 -6.68247,-0.53085 -9.4616,-1.59254 -2.77917,-1.0617 -5.13676,-2.68547 -7.07279,-4.87132 -1.90482,-2.18584 -3.37246,-4.91815 -4.40292,-8.19694 -0.99925,-3.30998 -1.49887,-7.19766 -1.49887,-11.663061 0,-17.486748 7.5724,-26.230134 22.71722,-26.230186 3.93449,5.2e-5 7.32256,0.546514 10.16419,1.639387 2.87279,1.092973 5.21477,2.732358 7.02595,4.91816 1.84231,2.185891 3.20066,4.9182 4.07504,8.196933 0.87429,3.278807 1.31146,7.104038 1.31151,11.475706 m -8.85269,0 c -4e-5,-3.934499 -0.3123,-7.182042 -0.93679,-9.74264 -0.59334,-2.560528 -1.48329,-4.605856 -2.66986,-6.13599 -1.15541,-1.530052 -2.57621,-2.591749 -4.2624,-3.185094 -1.68626,-0.624483 -3.59107,-0.936747 -5.71443,-0.936793 -2.15465,4.6e-5 -4.1063,0.327923 -5.85496,0.983632 -1.71747,0.624572 -3.18511,1.717496 -4.40292,3.278774 -1.21785,1.530133 -2.15464,3.575461 -2.81038,6.135989 -0.62454,2.560599 -0.9368,5.761303 -0.93679,9.602122 -1e-5,3.934551 0.34348,7.197711 1.03047,9.789481 0.68697,2.56058 1.62376,4.60591 2.81038,6.13599 1.21781,1.5301 2.63861,2.60741 4.2624,3.23193 1.65498,0.62454 3.4505,0.9368 5.38656,0.93679 2.15459,1e-5 4.10624,-0.29664 5.85495,-0.88995 1.74865,-0.62452 3.2319,-1.70183 4.44977,-3.23193 1.21779,-1.53008 2.15458,-3.59103 2.81037,-6.18283 0.65572,-2.59177 0.98359,-5.85493 0.98363,-9.789481"
         inkscape:connector-curvature="0" />
      <path
         sodipodi:nodetypes="cccccccccsccsccsccccccccccccccscccccccccccccccccccc"
         inkscape:connector-curvature="0"
         id="path4042"
         d="m 577.97981,122.87435 0,-32.131976 c -3e-5,-2.466852 -0.15616,-4.527793 -0.46839,-6.182829 -0.3123,-1.65496 -0.84315,-2.982081 -1.59255,-3.981368 -0.71824,-1.030428 -1.67064,-1.748635 -2.85722,-2.154622 -1.18663,-0.437125 -2.63866,-0.65571 -4.35608,-0.655755 -1.77993,4.5e-5 -3.38809,0.359149 -4.82448,1.077311 -1.43644,0.687025 -2.66988,1.701882 -3.70033,3.044575 -0.99926,1.311549 -1.77992,2.950934 -2.34198,4.91816 -0.53087,1.936072 -0.79629,4.168758 -0.79627,6.698066 l -0.84057,23.081808 -7.54373,6.28663 0,-39.860513 c 0,-1.061657 -0.0156,-2.170193 -0.0468,-3.325613 0,-1.186559 -0.0156,-2.295095 -0.0468,-3.325612 -0.0312,-1.061651 -0.0625,-1.967216 -0.0937,-2.716698 -0.0312,-0.749384 0.49788,5.053237 0.18649,0.724113 l 7.40235,-5.077663 c 0.0312,0.156182 0.34259,3.47926 0.37389,4.166191 0.0312,0.68703 0.0624,1.483303 0.0937,2.388821 0.0624,0.874386 0.10928,1.779951 0.14052,2.716698 0.0312,0.905609 0.0468,1.670655 0.0468,2.295141 l 0.14052,0 c 0.74942,-1.467598 1.5613,-2.794719 2.43566,-3.981368 0.87432,-1.186556 1.88918,-2.1858 3.04457,-2.997735 1.18658,-0.843063 2.52932,-1.483204 4.02821,-1.920424 1.53007,-0.468345 3.29436,-0.702543 5.29288,-0.702595 3.84081,5.2e-5 6.86977,0.765098 9.08688,2.295142 2.24826,1.530142 3.80958,3.965799 4.68396,7.30698 l 0.14052,0 c 0.74939,-1.467598 1.5925,-2.794719 2.52934,-3.981368 0.93675,-1.186556 2.02967,-2.1858 3.27878,-2.997735 1.249,-0.843063 2.65419,-1.483204 4.21556,-1.920424 1.56127,-0.468345 3.34117,-0.702543 5.33972,-0.702595 2.5605,5.2e-5 4.76196,0.343542 6.60438,1.030472 1.87352,0.687031 3.40361,1.748728 4.59029,3.185094 1.18653,1.436461 2.06087,3.29443 2.62301,5.573914 0.56201,2.248342 0.84304,4.93381 0.84312,8.056415 l -0.28019,28.693702 -8.05726,5.07766 0,-32.131976 c -7e-5,-2.466852 -0.1562,-4.527793 -0.4684,-6.182829 -0.31233,-1.65496 -0.84318,-2.982081 -1.59255,-3.981368 -0.71827,-1.030428 -1.67067,-1.748635 -2.85721,-2.154622 -1.18667,-0.437125 -2.63869,-0.65571 -4.35609,-0.655755 -1.77996,4.5e-5 -3.38812,0.343535 -4.82448,1.030472 -1.43646,0.655798 -2.66991,1.639429 -3.70033,2.950896 -0.99929,1.311549 -1.77995,2.950934 -2.34198,4.918159 -0.53089,1.967299 -0.79632,4.246824 -0.79627,6.838585 l 0.28019,24.774358 -8.61765,4.59408" />
      <path
         sodipodi:nodetypes="ccccsccccccscscccccccccccccccccc"
         inkscape:connector-curvature="0"
         id="path4044"
         d="m 634.9368,99.314024 c -10e-6,2.654266 0.26541,5.105536 0.79627,7.353816 0.56206,2.21709 1.40517,4.13752 2.52934,5.76128 1.15536,1.59255 2.623,2.84161 4.40292,3.74717 1.77989,0.87434 3.91889,1.31151 6.41703,1.31151 3.65346,0 6.57313,-0.73382 8.75901,-2.20147 2.21704,-1.46763 2.19353,-1.02655 2.97423,-3.27486 l 9.87451,-1.01236 c -0.53089,1.4052 -2.23181,3.64709 -3.19978,5.0835 -0.93683,1.40519 -2.2015,2.68547 -3.79401,3.84085 -1.59258,1.12415 -3.59107,2.06094 -5.99547,2.81037 -2.37324,0.71821 -5.24607,1.07731 -8.61849,1.07731 -7.49436,0 -13.20878,-2.23268 -17.1433,-6.69806 -3.9033,-4.46537 -5.85495,-11.10097 -5.85495,-19.906839 0,-4.746384 0.5933,-8.758974 1.77991,-12.037781 1.18659,-3.309959 2.81036,-5.995428 4.87132,-8.056414 2.06093,-2.060896 4.46536,-3.544149 7.2133,-4.449764 2.7479,-0.936741 5.68318,-1.405137 8.80585,-1.405189 4.24676,5.2e-5 7.79095,0.687032 10.63259,2.060944 2.87279,1.37401 5.16793,3.278819 6.88542,5.714433 1.74863,2.404475 2.98208,5.246076 3.70033,8.52481 0.74939,3.278805 1.1241,6.823 1.12415,10.632593 l 0,1.124151 -36.16018,0 m 27.44801,-6.463867 c -0.46843,-5.339681 -1.82678,-9.227365 -4.07504,-11.663065 -2.24834,-2.466842 -5.48027,-3.700284 -9.6958,-3.70033 -1.40522,4.6e-5 -2.88847,0.234244 -4.44977,0.702595 -1.53011,0.437214 -2.95091,1.233486 -4.2624,2.38882 -1.31153,1.155419 -2.42006,2.732351 -3.32562,4.730802 -0.90557,1.967299 -1.42081,4.481023 -1.5457,7.541178 l 27.35433,0" />
      <path
         sodipodi:nodetypes="cccccccccsccsccsccccccccccccccccc"
         inkscape:connector-curvature="0"
         id="path4046"
         d="m 714.0489,122.87435 0,-32.131976 c -3e-5,-2.466852 -0.18739,-4.527793 -0.56207,-6.182829 -0.34353,-1.65496 -0.92122,-2.982081 -1.73307,-3.981368 -0.81192,-1.030428 -1.88923,-1.748635 -3.23193,-2.154622 -1.31154,-0.437125 -2.95093,-0.65571 -4.91816,-0.655755 -1.99852,4.5e-5 -3.80965,0.359149 -5.4334,1.077311 -1.59256,0.687025 -2.96653,1.701882 -4.12188,3.044575 -1.12417,1.311549 -1.99851,2.950934 -2.62302,4.91816 -0.62455,1.936072 -0.93681,4.168758 -0.93679,6.698066 l 0,24.934548 -8.43113,4.43389 0,-39.860513 c -10e-6,-1.061657 -0.0156,-2.170193 -0.0468,-3.325613 -1e-5,-1.186559 -0.0156,-2.295095 -0.0468,-3.325612 -0.0312,-1.061651 0.0326,-0.242926 10e-4,-0.992408 -0.0312,-0.749384 -0.0149,0.16246 -0.0461,-0.05617 l 7.86758,-3.694906 c 0.0312,0.156182 0.0148,1.152501 0.0461,1.839432 0.0312,0.68703 0.0624,1.483303 0.0937,2.388821 0.0624,0.874386 0.10928,1.779951 0.14052,2.716698 0.0312,0.905609 0.0468,1.670655 0.0468,2.295141 l 0.14052,0 c 0.81187,-1.467598 1.70182,-2.794719 2.66986,-3.981368 0.968,-1.186556 2.09215,-2.1858 3.37245,-2.997735 1.28026,-0.843063 2.7479,-1.483204 4.40292,-1.920424 1.65498,-0.468345 3.5754,-0.702543 5.76128,-0.702595 2.81034,5.2e-5 5.23038,0.343542 7.26014,1.030472 2.02967,0.687031 3.70028,1.748728 5.01184,3.185094 1.31146,1.436461 2.26386,3.29443 2.85721,5.573914 0.62448,2.248342 0.93675,4.93381 0.93679,8.056415 l -0.38059,29.009047 -8.09738,4.76232" />
    </g>
  </g>
</svg>
