<?xml version="1.0" encoding="UTF-8" standalone="no"?>
<!-- Created with Inkscape (http://www.inkscape.org/) -->

<svg
   xmlns:dc="http://purl.org/dc/elements/1.1/"
   xmlns:cc="http://creativecommons.org/ns#"
   xmlns:rdf="http://www.w3.org/1999/02/22-rdf-syntax-ns#"
   xmlns:svg="http://www.w3.org/2000/svg"
   xmlns="http://www.w3.org/2000/svg"
   xmlns:xlink="http://www.w3.org/1999/xlink"
   xmlns:sodipodi="http://sodipodi.sourceforge.net/DTD/sodipodi-0.dtd"
   xmlns:inkscape="http://www.inkscape.org/namespaces/inkscape"
   version="1.0"
   width="300"
   height="200"
   id="svg2424"
   inkscape:version="0.48.2 r9819"
   sodipodi:docname="archwomenLOGOsquarewhite.svg"
   inkscape:export-filename="/home/meskarune/Documents/archwomenLOGOsquarewhite.png"
   inkscape:export-xdpi="89.968338"
   inkscape:export-ydpi="89.968338">
  <metadata
     id="metadata3144">
    <rdf:RDF>
      <cc:Work
         rdf:about="">
        <dc:format>image/svg+xml</dc:format>
        <dc:type
           rdf:resource="http://purl.org/dc/dcmitype/StillImage" />
        <dc:title></dc:title>
      </cc:Work>
    </rdf:RDF>
  </metadata>
  <sodipodi:namedview
     pagecolor="#ffffff"
     bordercolor="#666666"
     borderopacity="1"
     objecttolerance="10"
     gridtolerance="10"
     guidetolerance="10"
     inkscape:pageopacity="0"
     inkscape:pageshadow="2"
     inkscape:window-width="1280"
     inkscape:window-height="675"
     id="namedview3142"
     showgrid="false"
     inkscape:zoom="1.4142136"
     inkscape:cx="349.59078"
     inkscape:cy="129.57241"
     inkscape:window-x="0"
     inkscape:window-y="26"
     inkscape:window-maximized="1"
     inkscape:current-layer="text3261" />
  <defs
     id="defs2426">
    <linearGradient
       x1="112.49854"
       y1="6.1372099"
       x2="112.49853"
       y2="129.3468"
       id="path1082_2_"
       gradientUnits="userSpaceOnUse"
       gradientTransform="translate(287,-83)">
      <stop
         id="stop193"
         style="stop-color:#ffffff;stop-opacity:0"
         offset="0" />
      <stop
         id="stop195"
         style="stop-color:#ffffff;stop-opacity:0.27450982"
         offset="1" />
      <midPointStop
         offset="0"
         style="stop-color:#FFFFFF"
         id="midPointStop197" />
      <midPointStop
         offset="0.5"
         style="stop-color:#FFFFFF"
         id="midPointStop199" />
      <midPointStop
         offset="1"
         style="stop-color:#000000"
         id="midPointStop201" />
    </linearGradient>
    <linearGradient
       x1="541.33502"
       y1="104.50665"
       x2="606.91248"
       y2="303.14029"
       id="linearGradient2544"
       xlink:href="#path1082_2_"
       gradientUnits="userSpaceOnUse"
       gradientTransform="matrix(-0.3937741,0,0,0.393752,357.51969,122.00151)" />
    <linearGradient
       id="linearGradient3388">
      <stop
         id="stop3390"
         style="stop-color:#000000;stop-opacity:0"
         offset="0" />
      <stop
         id="stop3392"
         style="stop-color:#000000;stop-opacity:0.37113401"
         offset="1" />
    </linearGradient>
    <linearGradient
       x1="490.72305"
       y1="237.72447"
       x2="490.72305"
       y2="183.9644"
       id="linearGradient4416"
       xlink:href="#linearGradient3388"
       gradientUnits="userSpaceOnUse"
       gradientTransform="matrix(0.749107,0,0,0.749107,-35.459862,91.44108)" />
  </defs>
  <g
     transform="matrix(0.92895768,0,0,1.0764753,0,0.58308411)"
     style="font-size:95.92753601px;font-style:normal;font-variant:normal;font-weight:normal;font-stretch:normal;text-align:start;line-height:125%;letter-spacing:0px;word-spacing:0px;writing-mode:lr-tb;text-anchor:start;fill:#1793d1;fill-opacity:1;stroke:none;font-family:Liberation Sans;-inkscape-font-specification:Liberation Sans"
     id="text3261">
    <path
       d="m 160.08929,4.3656015 c -7.00761,14.8263695 -11.23426,24.5245595 -19.03631,38.9102015 4.78363,4.375782 10.65532,9.471598 20.19092,15.226843 -10.25171,-3.640418 -17.24462,-7.295312 -22.47054,-11.088003 -9.98514,17.980276 -25.62898,43.592387 -57.375389,92.817327 24.951609,-12.43097 44.293649,-20.09479 62.319499,-23.01911 -0.77404,-2.87291 -1.21411,-5.98051 -1.18422,-9.22297 l 0.0296,-0.68981 c 0.39592,-13.79516 8.71174,-24.40365 18.56262,-23.68336 9.85089,0.72029 17.50787,12.494121 17.11196,26.2893 -0.0745,2.59582 -0.41376,5.09296 -1.00659,7.40903 17.83014,3.00992 36.96536,10.65413 61.57935,22.91692 -4.8534,-7.71096 -9.18548,-14.66182 -13.32245,-21.28182 -6.51642,-4.35852 -13.31336,-10.03116 -27.17781,-16.17213 9.52963,2.13687 16.35272,4.60224 21.67119,7.35794 C 177.91932,42.555878 174.51321,33.575882 160.08929,4.3656015 z"
       id="path2518"
       style="fill:#1793d1;fill-opacity:1;fill-rule:evenodd;stroke:none"
       inkscape:connector-curvature="0" />
    <g
       id="text2634"
       style="font-size:8.44138241px;font-style:normal;font-weight:normal;fill:#ffffff;fill-opacity:1;stroke:none;font-family:DejaVu Sans Mono"
       transform="matrix(0.92870809,0,0,1.0861806,-566.47423,-149.53815)">
      <path
         d="m 685.46692,263.83624 0,-5.32944 -1.99082,0 0,-0.71307 4.7895,0 0,0.71307 -1.99906,0 0,5.32944 -0.79962,0"
         id="path3660"
         style="fill:#ffffff;fill-opacity:1"
         inkscape:connector-curvature="0" />
      <path
         d="m 689.0982,263.83624 0,-6.04251 1.20355,0 1.43026,4.2784 c 0.13189,0.39843 0.22806,0.69658 0.28852,0.89442 0.0687,-0.21983 0.17586,-0.5427 0.3215,-0.96862 l 1.44674,-4.2042 1.07578,0 0,6.04251 -0.77077,0 0,-5.05741 -1.75587,5.05741 -0.72131,0 -1.74763,-5.14396 0,5.14396 -0.77077,0"
         id="path3662"
         style="fill:#ffffff;fill-opacity:1"
         inkscape:connector-curvature="0" />
    </g>
    <g
       transform="matrix(0.27190153,0,0,0.24723325,-44.314744,73.285035)"
       id="g2809"
       style="fill:#ffffff;fill-opacity:1">
      <path
         d="m 339.96875,309.09375 c -14.47141,-0.0239 -26.4812,2.94367 -31.125,4.5625 l -4.78125,25.8125 c -0.0116,0.0951 23.79543,-6.34855 34.28125,-5.96875 17.36158,0.62381 18.95948,6.63541 18.65625,14.75 0.29595,0.47462 -4.47933,-7.33192 -19.5,-7.59375 -18.94961,-0.32687 -45.69284,6.70947 -45.65625,35.3125 -0.51086,32.17412 24.03361,41.63882 40.75,41.8125 15.02821,-0.27364 22.0777,-5.69136 25.9375,-8.59375 5.07124,-5.30236 10.87308,-10.63447 16.40625,-17.03125 -5.23567,9.51278 -9.77472,16.0898 -14.5,21.125 l 0,4.25 22.84375,-3.84375 0.15625,-62.09375 c -0.23141,-8.78839 5.04123,-42.41827 -43.46875,-42.5 z m -3.28125,54.0625 c 9.46889,0.12995 20.32788,4.79708 20.34375,16.03125 0.049,10.21821 -12.80005,15.71183 -21.15625,15.625 -8.35976,-0.0868 -19.45093,-6.56982 -19.5,-16.53125 0.16016,-8.90444 10.45953,-15.35418 20.3125,-15.125 z"
         id="path2284"
         style="fill:#ffffff;fill-opacity:1;fill-rule:evenodd;stroke:none"
         inkscape:connector-curvature="0" />
      <path
         d="m 398.50106,314.83145 -0.15505,102.82693 26.61213,-5.12724 0.0449,-58.30157 c 0.006,-8.68089 12.40554,-18.82451 27.9627,-18.66287 3.30202,-5.97408 9.5087,-21.24219 11.02088,-24.71514 -34.75649,-0.0833 -35.19897,9.98993 -41.24398,14.94517 -0.0631,-9.45285 -0.0213,-15.12741 -0.0213,-15.12741 l -24.2202,4.16213 z"
         id="path2286"
         style="fill:#ffffff;fill-opacity:1;fill-rule:evenodd;stroke:none"
         inkscape:connector-curvature="0" />
      <path
         d="m 548.2688,328.33058 c -0.25696,-0.12068 -13.87938,-15.93419 -41.26638,-16.0589 -25.65249,-0.42638 -54.42578,9.51895 -54.88631,52.5328 0.22457,37.81852 27.6402,52.59809 55.0314,52.88627 29.31292,0.30451 40.97654,-18.32947 41.67615,-18.79124 -3.49762,-3.0321 -16.59792,-16.0131 -16.59792,-16.0131 0,0 -8.18236,11.65102 -24.05802,11.79913 -15.87942,0.1512 -29.68245,-12.27325 -29.87805,-29.60905 -0.20349,-17.33595 12.68881,-26.72821 29.99725,-27.48687 14.98466,-0.003 23.6297,9.67334 23.6297,9.67334 l 16.35218,-18.93238 z"
         id="path2288"
         style="fill:#ffffff;fill-opacity:1;fill-rule:evenodd;stroke:none"
         inkscape:connector-curvature="0" />
      <path
         d="m 581.8125,278.84375 -25.125,5.90625 0.1875,133.9375 24.75,-4.46875 0.28125,-63.03125 c 0.0529,-6.60927 9.56127,-16.75916 25.4375,-16.4375 15.17973,0.15775 18.57236,10.11767 18.53125,11.375 l 0.4375,72.96875 24.40625,-4.3125 0.0937,-77.375 c 0.1607,-7.44539 -16.30833,-23.16954 -42.78125,-23.28125 -12.58087,0.0202 -19.54815,2.86825 -23.09375,4.96875 -6.06656,4.68565 -12.9998,9.17543 -19.8125,14.90625 6.29809,-8.09099 11.58551,-13.68516 16.75,-17.84375 l -0.0625,-37.3125 z"
         id="path2290"
         style="fill:#ffffff;fill-opacity:1;fill-rule:evenodd;stroke:none"
         inkscape:connector-curvature="0" />
    </g>
    <path
       d="m 170.07489,173.76665 -6.35736,2.999 -5.17438,-19.99842 c -0.15554,-0.56604 -0.32519,-1.23638 -0.50896,-2.01101 -0.16967,-0.77459 -0.32518,-1.51197 -0.46654,-2.21212 -0.16968,-0.81928 -0.33933,-1.65348 -0.50896,-2.5026 -0.18381,0.86402 -0.36053,1.70567 -0.53016,2.52494 -0.15554,0.71506 -0.31812,1.45243 -0.48775,2.21212 -0.16967,0.75974 -0.33226,1.42263 -0.48775,1.98867 l -4.70939,17.57615 -5.3425,2.42227 -7.91272,-28.02316 3.33211,-3.46039 5.36525,19.99843 c 0.24033,0.93848 0.46653,1.8695 0.67861,2.79307 0.22619,0.92358 0.41705,1.75034 0.57258,2.48026 0.18377,0.86399 0.35342,1.68329 0.50895,2.4579 0.21205,-1.02785 0.43119,-2.0408 0.6574,-3.03887 0.099,-0.41709 0.19792,-0.85653 0.29689,-1.31833 0.099,-0.46178 0.19792,-0.91612 0.2969,-1.36302 0.11308,-0.44688 0.21912,-0.87143 0.31809,-1.27364 0.11309,-0.41709 0.21206,-0.79695 0.29689,-1.13958 l 5.1956,-19.59622 3.88079,0 5.1956,19.59622 c 0.0848,0.34263 0.1767,0.72249 0.27568,1.13958 0.11308,0.40221 0.21911,0.82676 0.3181,1.27364 0.11308,0.43201 0.21911,0.8789 0.3181,1.34068 0.0989,0.4618 0.1979,0.90123 0.29689,1.31833 0.22618,0.99806 0.44531,2.01847 0.65741,3.06121 0.0141,0 0.0777,-0.25323 0.19085,-0.75972 0.11308,-0.52137 0.25445,-1.16936 0.42413,-1.94398 0.16963,-0.77461 0.35342,-1.6088 0.55137,-2.50259 0.21203,-0.90868 0.4241,-1.75032 0.6362,-2.52494 l 4.89985,-17.57615 4.60067,-2.42228"
       id="path4038"
       inkscape:connector-curvature="0"
       sodipodi:nodetypes="cccccccccccccccccccccccccccccccccccc" />
    <path
       inkscape:connector-curvature="0"
       d="m 199.04759,164.65488 c -2e-5,4.23059 -0.88362,7.38117 -2.65081,9.45176 -1.76722,2.07061 -4.33322,3.1059 -7.69796,3.1059 -1.59758,0 -3.02548,-0.25323 -4.28372,-0.75971 -1.25826,-0.50648 -2.32565,-1.28109 -3.20219,-2.32384 -0.8624,-1.04274 -1.52687,-2.34617 -1.99341,-3.91031 -0.45241,-1.57901 -0.67861,-3.4336 -0.67861,-5.5638 0,-8.34197 3.42839,-12.51296 10.28516,-12.51298 1.78133,2e-5 3.31528,0.26071 4.60181,0.78206 1.30065,0.5214 2.36098,1.30346 3.18099,2.34618 0.8341,1.04277 1.44909,2.34621 1.84496,3.91031 0.39583,1.56414 0.59376,3.38894 0.59378,5.47443 m -4.00803,0 c -2e-5,-1.87694 -0.14139,-3.42616 -0.42413,-4.64768 -0.26863,-1.22149 -0.67155,-2.1972 -1.20877,-2.92714 -0.52311,-0.72991 -1.16637,-1.23639 -1.92979,-1.51944 -0.76345,-0.2979 -1.62585,-0.44687 -2.5872,-0.44689 -0.97551,2e-5 -1.85911,0.15643 -2.65081,0.46924 -0.77758,0.29794 -1.44205,0.81932 -1.99341,1.56412 -0.55138,0.72994 -0.97551,1.70566 -1.27239,2.92714 -0.28276,1.22152 -0.42414,2.7484 -0.42414,4.58065 0,1.87695 0.15551,3.43363 0.46655,4.67002 0.31102,1.22151 0.73515,2.19723 1.27239,2.92714 0.55136,0.72993 1.19462,1.24386 1.92979,1.54178 0.74929,0.29793 1.5622,0.4469 2.43875,0.44689 0.97549,1e-5 1.85909,-0.14151 2.65082,-0.42455 0.79169,-0.29792 1.46323,-0.81184 2.01462,-1.54177 0.55135,-0.72992 0.97548,-1.71309 1.27238,-2.94949 0.29688,-1.23639 0.44532,-2.79307 0.44534,-4.67002"
       id="path4040" />
    <path
       d="m 217.17917,176.76565 0,-15.3284 c -2e-5,-1.1768 -0.0707,-2.15996 -0.21207,-2.94948 -0.14139,-0.7895 -0.38173,-1.42259 -0.72102,-1.8993 -0.32518,-0.49156 -0.75638,-0.83417 -1.2936,-1.02785 -0.53724,-0.20853 -1.19465,-0.3128 -1.9722,-0.31282 -0.80586,2e-5 -1.53395,0.17133 -2.18427,0.51392 -0.65035,0.32774 -1.20879,0.81188 -1.67532,1.4524 -0.45241,0.62567 -0.80585,1.40773 -1.06033,2.34619 -0.24035,0.92359 -0.36051,1.98868 -0.3605,3.19528 l -0.38057,11.01106 -3.41541,2.999 0,-19.01526 c 0,-0.50646 -0.007,-1.03528 -0.0212,-1.58646 0,-0.56605 -0.007,-1.09487 -0.0212,-1.58647 -0.0141,-0.50646 -0.0283,-0.93845 -0.0424,-1.29599 -0.0141,-0.35749 0.22542,2.41062 0.0844,0.34544 l 3.35139,-2.42228 c 0.0141,0.0745 0.15511,1.65977 0.16928,1.98746 0.0141,0.32775 0.0282,0.70761 0.0424,1.13958 0.0282,0.41712 0.0495,0.84912 0.0636,1.29599 0.0142,0.43201 0.0212,0.79697 0.0212,1.09488 l 0.0636,0 c 0.3393,-0.70011 0.70687,-1.33321 1.10274,-1.89929 0.39584,-0.56604 0.85532,-1.04273 1.37842,-1.43006 0.53722,-0.40217 1.14514,-0.70755 1.82376,-0.91612 0.69274,-0.22343 1.49151,-0.33515 2.39634,-0.33517 1.73891,2e-5 3.11027,0.36498 4.11406,1.09488 1.01789,0.72995 1.72478,1.89187 2.12065,3.48576 l 0.0636,0 c 0.33929,-0.70011 0.721,-1.33321 1.14515,-1.89929 0.42412,-0.56604 0.91893,-1.04273 1.48446,-1.43006 0.56548,-0.40217 1.20168,-0.70755 1.90859,-0.91612 0.70686,-0.22343 1.5127,-0.33515 2.41754,-0.33517 1.15926,2e-5 2.15596,0.16388 2.99012,0.49158 0.84823,0.32774 1.54097,0.83422 2.07824,1.51943 0.5372,0.68526 0.93305,1.57159 1.18756,2.65901 0.25445,1.07256 0.38169,2.35365 0.38172,3.84327 l -0.12685,13.68819 -3.64791,2.42227 0,-15.3284 c -3e-5,-1.1768 -0.0707,-2.15996 -0.21207,-2.94948 -0.1414,-0.7895 -0.38174,-1.42259 -0.72102,-1.8993 -0.32519,-0.49156 -0.75639,-0.83417 -1.29359,-1.02785 -0.53726,-0.20853 -1.19467,-0.3128 -1.97221,-0.31282 -0.80587,2e-5 -1.53396,0.16388 -2.18427,0.49158 -0.65036,0.31284 -1.2088,0.78208 -1.67532,1.40771 -0.45242,0.62567 -0.80587,1.40773 -1.06032,2.34618 -0.24037,0.93849 -0.36053,2.02593 -0.36051,3.26232 l 0.12685,11.81848 -3.90162,2.19158"
       id="path4042"
       inkscape:connector-curvature="0"
       sodipodi:nodetypes="cccccccccsccsccsccccccccccccccscccccccccccccccccccc" />
    <path
       d="m 242.9663,165.52632 c -1e-5,1.2662 0.12016,2.43557 0.3605,3.5081 0.25448,1.05765 0.63619,1.97378 1.14516,2.74839 0.52308,0.75971 1.18756,1.35558 1.99341,1.78757 0.80584,0.41709 1.77426,0.62564 2.9053,0.62564 1.65409,0 2.97596,-0.35006 3.96562,-1.0502 1.00375,-0.70012 0.99311,-0.4897 1.34657,-1.56225 l 4.47066,-0.48294 c -0.24036,0.67034 -1.01045,1.73982 -1.4487,2.42506 -0.42414,0.67033 -0.99672,1.28109 -1.71772,1.83226 -0.72104,0.53627 -1.62585,0.98316 -2.71444,1.34067 -1.07447,0.34262 -2.37514,0.51392 -3.90199,0.51392 -3.39306,0 -5.98025,-1.06508 -7.76159,-3.19527 -1.76721,-2.13019 -2.65082,-5.29567 -2.65082,-9.49646 0,-2.26424 0.26862,-4.17843 0.80585,-5.74256 0.53723,-1.579 1.27239,-2.86009 2.20548,-3.84328 0.93308,-0.98314 2.02168,-1.69072 3.2658,-2.12273 1.24411,-0.44687 2.57305,-0.67032 3.98683,-0.67034 1.92271,2e-5 3.52733,0.32774 4.81388,0.98316 1.30065,0.65546 2.33976,1.56414 3.11736,2.72604 0.79169,1.14704 1.35012,2.50262 1.67531,4.06672 0.33929,1.56414 0.50893,3.25488 0.50896,5.07223 l 0,0.53627 -16.37143,0 m 12.42701,-3.08356 c -0.21208,-2.54727 -0.82707,-4.40187 -1.84496,-5.56381 -1.01793,-1.17679 -2.48118,-1.7652 -4.38975,-1.76522 -0.63621,2e-5 -1.30775,0.11174 -2.01462,0.33517 -0.69275,0.20857 -1.33602,0.58843 -1.92979,1.13957 -0.59379,0.55119 -1.09568,1.30346 -1.50567,2.25681 -0.40999,0.93849 -0.64326,2.13765 -0.69981,3.59748 l 12.3846,0"
       id="path4044"
       inkscape:connector-curvature="0"
       sodipodi:nodetypes="ccccsccccccscscccccccccccccccccc" />
    <path
       d="m 278.7841,176.76565 0,-15.3284 c -2e-5,-1.1768 -0.0848,-2.15996 -0.25448,-2.94948 -0.15553,-0.7895 -0.41708,-1.42259 -0.78464,-1.8993 -0.3676,-0.49156 -0.85534,-0.83417 -1.46325,-1.02785 -0.59379,-0.20853 -1.33602,-0.3128 -2.22669,-0.31282 -0.90482,2e-5 -1.7248,0.17133 -2.45995,0.51392 -0.72103,0.32774 -1.34309,0.81188 -1.86617,1.4524 -0.50897,0.62567 -0.90482,1.40773 -1.18757,2.34619 -0.28276,0.92359 -0.42413,1.98868 -0.42412,3.19528 l 0,11.8949 -3.81718,2.11516 0,-19.01526 c -10e-6,-0.50646 -0.007,-1.03528 -0.0212,-1.58646 0,-0.56605 -0.007,-1.09487 -0.0212,-1.58647 -0.0141,-0.50646 0.0148,-0.11589 4.5e-4,-0.47342 -0.0141,-0.35749 -0.007,0.0775 -0.0209,-0.0268 l 3.56202,-1.76263 c 0.0141,0.0745 0.007,0.54979 0.0209,0.87749 0.0141,0.32774 0.0282,0.7076 0.0424,1.13957 0.0282,0.41712 0.0495,0.84912 0.0636,1.29599 0.0142,0.43202 0.0212,0.79698 0.0212,1.09489 l 0.0636,0 c 0.36757,-0.70011 0.77049,-1.33321 1.20877,-1.8993 0.43826,-0.56604 0.94722,-1.04272 1.52687,-1.43005 0.57963,-0.40218 1.24411,-0.70756 1.99341,-0.91613 0.74929,-0.22342 1.61875,-0.33514 2.60841,-0.33517 1.27237,3e-5 2.36804,0.16389 3.28701,0.49158 0.91892,0.32775 1.67529,0.83422 2.26909,1.51944 0.59376,0.68525 1.02496,1.57159 1.2936,2.659 0.28273,1.07256 0.42411,2.35365 0.42413,3.84328 l -0.17231,13.83862 -3.66607,2.27184"
       id="path4046"
       inkscape:connector-curvature="0"
       sodipodi:nodetypes="cccccccccsccsccsccccccccccccccccc" />
  </g>
</svg>
