<?xml version="1.0" encoding="UTF-8" standalone="no"?>
<!-- Created with Inkscape (http://www.inkscape.org/) -->

<svg
   xmlns:dc="http://purl.org/dc/elements/1.1/"
   xmlns:cc="http://creativecommons.org/ns#"
   xmlns:rdf="http://www.w3.org/1999/02/22-rdf-syntax-ns#"
   xmlns:svg="http://www.w3.org/2000/svg"
   xmlns="http://www.w3.org/2000/svg"
   xmlns:xlink="http://www.w3.org/1999/xlink"
   xmlns:sodipodi="http://sodipodi.sourceforge.net/DTD/sodipodi-0.dtd"
   xmlns:inkscape="http://www.inkscape.org/namespaces/inkscape"
   version="1.0"
   width="600"
   height="199.41692"
   id="svg2424"
   inkscape:version="0.48.2 r9819"
   sodipodi:docname="archwomen.svg">
  <metadata
     id="metadata3144">
    <rdf:RDF>
      <cc:Work
         rdf:about="">
        <dc:format>image/svg+xml</dc:format>
        <dc:type
           rdf:resource="http://purl.org/dc/dcmitype/StillImage" />
        <dc:title></dc:title>
      </cc:Work>
    </rdf:RDF>
  </metadata>
  <sodipodi:namedview
     pagecolor="#ffffff"
     bordercolor="#666666"
     borderopacity="1"
     objecttolerance="10"
     gridtolerance="10"
     guidetolerance="10"
     inkscape:pageopacity="0"
     inkscape:pageshadow="2"
     inkscape:window-width="1280"
     inkscape:window-height="675"
     id="namedview3142"
     showgrid="false"
     inkscape:zoom="1.4142136"
     inkscape:cx="349.59078"
     inkscape:cy="139.93995"
     inkscape:window-x="0"
     inkscape:window-y="26"
     inkscape:window-maximized="1"
     inkscape:current-layer="text3261" />
  <defs
     id="defs2426">
    <linearGradient
       x1="112.49854"
       y1="6.1372099"
       x2="112.49853"
       y2="129.3468"
       id="path1082_2_"
       gradientUnits="userSpaceOnUse"
       gradientTransform="translate(287,-83)">
      <stop
         id="stop193"
         style="stop-color:#ffffff;stop-opacity:0"
         offset="0" />
      <stop
         id="stop195"
         style="stop-color:#ffffff;stop-opacity:0.27450982"
         offset="1" />
      <midPointStop
         offset="0"
         style="stop-color:#FFFFFF"
         id="midPointStop197" />
      <midPointStop
         offset="0.5"
         style="stop-color:#FFFFFF"
         id="midPointStop199" />
      <midPointStop
         offset="1"
         style="stop-color:#000000"
         id="midPointStop201" />
    </linearGradient>
    <linearGradient
       x1="541.33502"
       y1="104.50665"
       x2="606.91248"
       y2="303.14029"
       id="linearGradient2544"
       xlink:href="#path1082_2_"
       gradientUnits="userSpaceOnUse"
       gradientTransform="matrix(-0.3937741,0,0,0.393752,357.51969,122.00151)" />
    <linearGradient
       id="linearGradient3388">
      <stop
         id="stop3390"
         style="stop-color:#000000;stop-opacity:0"
         offset="0" />
      <stop
         id="stop3392"
         style="stop-color:#000000;stop-opacity:0.37113401"
         offset="1" />
    </linearGradient>
    <linearGradient
       x1="490.72305"
       y1="237.72447"
       x2="490.72305"
       y2="183.9644"
       id="linearGradient4416"
       xlink:href="#linearGradient3388"
       gradientUnits="userSpaceOnUse"
       gradientTransform="matrix(0.749107,0,0,0.749107,-35.459862,91.44108)" />
  </defs>
  <g
     transform="scale(0.92895768,1.0764753)"
     style="font-size:95.92753601px;font-style:normal;font-variant:normal;font-weight:normal;font-stretch:normal;text-align:start;line-height:125%;letter-spacing:0px;word-spacing:0px;writing-mode:lr-tb;text-anchor:start;fill:#1793d1;fill-opacity:1;stroke:none;font-family:Liberation Sans;-inkscape-font-specification:Liberation Sans"
     id="text3261">
    <g
       transform="matrix(0.52853446,0,0,0.45610535,-1.1255588,-71.66478)"
       id="g2809"
       style="fill:#535353;fill-opacity:1">
      <path
         d="m 339.96875,309.09375 c -14.47141,-0.0239 -26.4812,2.94367 -31.125,4.5625 l -4.78125,25.8125 c -0.0116,0.0951 23.79543,-6.34855 34.28125,-5.96875 17.36158,0.62381 18.95948,6.63541 18.65625,14.75 0.29595,0.47462 -4.47933,-7.33192 -19.5,-7.59375 -18.94961,-0.32687 -45.69284,6.70947 -45.65625,35.3125 -0.51086,32.17412 24.03361,41.63882 40.75,41.8125 15.02821,-0.27364 22.0777,-5.69136 25.9375,-8.59375 5.07124,-5.30236 10.87308,-10.63447 16.40625,-17.03125 -5.23567,9.51278 -9.77472,16.0898 -14.5,21.125 l 0,4.25 22.84375,-3.84375 0.15625,-62.09375 c -0.23141,-8.78839 5.04123,-42.41827 -43.46875,-42.5 z m -3.28125,54.0625 c 9.46889,0.12995 20.32788,4.79708 20.34375,16.03125 0.049,10.21821 -12.80005,15.71183 -21.15625,15.625 -8.35976,-0.0868 -19.45093,-6.56982 -19.5,-16.53125 0.16016,-8.90444 10.45953,-15.35418 20.3125,-15.125 z"
         id="path2284"
         style="fill:#535353;fill-opacity:1;fill-rule:evenodd;stroke:none"
         inkscape:connector-curvature="0" />
      <path
         d="m 398.50106,314.83145 -0.15505,102.82693 26.61213,-5.12724 0.0449,-58.30157 c 0.006,-8.68089 12.40554,-18.82451 27.9627,-18.66287 3.30202,-5.97408 9.5087,-21.24219 11.02088,-24.71514 -34.75649,-0.0833 -35.19897,9.98993 -41.24398,14.94517 -0.0631,-9.45285 -0.0213,-15.12741 -0.0213,-15.12741 l -24.2202,4.16213 z"
         id="path2286"
         style="fill:#535353;fill-opacity:1;fill-rule:evenodd;stroke:none"
         inkscape:connector-curvature="0" />
      <path
         d="m 548.2688,328.33058 c -0.25696,-0.12068 -13.87938,-15.93419 -41.26638,-16.0589 -25.65249,-0.42638 -54.42578,9.51895 -54.88631,52.5328 0.22457,37.81852 27.6402,52.59809 55.0314,52.88627 29.31292,0.30451 40.97654,-18.32947 41.67615,-18.79124 -3.49762,-3.0321 -16.59792,-16.0131 -16.59792,-16.0131 0,0 -8.18236,11.65102 -24.05802,11.79913 -15.87942,0.1512 -29.68245,-12.27325 -29.87805,-29.60905 -0.20349,-17.33595 12.68881,-26.72821 29.99725,-27.48687 14.98466,-0.003 23.6297,9.67334 23.6297,9.67334 l 16.35218,-18.93238 z"
         id="path2288"
         style="fill:#535353;fill-opacity:1;fill-rule:evenodd;stroke:none"
         inkscape:connector-curvature="0" />
      <path
         d="m 581.8125,278.84375 -25.125,5.90625 0.1875,133.9375 24.75,-4.46875 0.28125,-63.03125 c 0.0529,-6.60927 9.56127,-16.75916 25.4375,-16.4375 15.17973,0.15775 18.57236,10.11767 18.53125,11.375 l 0.4375,72.96875 24.40625,-4.3125 0.0937,-77.375 c 0.1607,-7.44539 -16.30833,-23.16954 -42.78125,-23.28125 -12.58087,0.0202 -19.54815,2.86825 -23.09375,4.96875 -6.06656,4.68565 -12.9998,9.17543 -19.8125,14.90625 6.29809,-8.09099 11.58551,-13.68516 16.75,-17.84375 l -0.0625,-37.3125 z"
         id="path2290"
         style="fill:#535353;fill-opacity:1;fill-rule:evenodd;stroke:none"
         inkscape:connector-curvature="0" />
    </g>
    <path
       d="M 87.877363,27.356127 C 80.869756,42.182501 76.643107,51.880691 68.841054,66.266333 73.62469,70.642115 79.496376,75.737931 89.031976,81.493176 78.780271,77.852758 71.787354,74.197864 66.561434,70.405173 56.576295,88.385449 40.932454,113.99756 9.1860592,163.2225 34.137659,150.79153 53.479696,143.12771 71.505545,140.20339 c -0.774037,-2.87291 -1.214108,-5.98051 -1.184218,-9.22297 l 0.02961,-0.68981 c 0.395924,-13.79516 8.71174,-24.40365 18.562622,-23.68336 9.850885,0.72029 17.507866,12.49412 17.111956,26.2893 -0.0745,2.59582 -0.41376,5.09296 -1.00659,7.40903 17.83014,3.00992 36.96536,10.65413 61.57935,22.91692 -4.8534,-7.71096 -9.18548,-14.66182 -13.32245,-21.28182 -6.51642,-4.35852 -13.31336,-10.03116 -27.17781,-16.17213 9.52963,2.13687 16.35272,4.60224 21.67119,7.35794 C 105.7074,65.546408 102.30129,56.566412 87.877363,27.356127 z"
       id="path2518"
       style="fill:#1793d1;fill-opacity:1;fill-rule:evenodd;stroke:none"
       inkscape:connector-curvature="0" />
    <g
       id="text2634"
       style="font-size:8.44138240999999923px;font-style:normal;font-weight:normal;fill:#434343;fill-opacity:1;stroke:none;font-family:DejaVu Sans Mono"
       transform="matrix(1.1960607,0,0,1.4123061,-649.38792,-218.50321)">
      <path
         d="m 685.46692,263.83624 0,-5.32944 -1.99082,0 0,-0.71307 4.7895,0 0,0.71307 -1.99906,0 0,5.32944 -0.79962,0"
         id="path3660"
         style="fill:#434343;fill-opacity:1"
         inkscape:connector-curvature="0" />
      <path
         d="m 689.0982,263.83624 0,-6.04251 1.20355,0 1.43026,4.2784 c 0.13189,0.39843 0.22806,0.69658 0.28852,0.89442 0.0687,-0.21983 0.17586,-0.5427 0.3215,-0.96862 l 1.44674,-4.2042 1.07578,0 0,6.04251 -0.77077,0 0,-5.05741 -1.75587,5.05741 -0.72131,0 -1.74763,-5.14396 0,5.14396 -0.77077,0"
         id="path3662"
         style="fill:#434343;fill-opacity:1"
         inkscape:connector-curvature="0" />
    </g>
    <path
       d="m 415.61455,113.70754 -12.35771,5.53268 -10.05821,-36.893854 c -0.30234,-1.044257 -0.63211,-2.280922 -0.98933,-3.709996 -0.32982,-1.428994 -0.63211,-2.789325 -0.90689,-4.080997 -0.32982,-1.511434 -0.6596,-3.050394 -0.98933,-4.616885 -0.3573,1.593972 -0.70082,3.146673 -1.03056,4.658107 -0.30234,1.319153 -0.61837,2.679484 -0.94811,4.080996 -0.32981,1.401594 -0.64585,2.624518 -0.9481,3.668775 l -9.15432,32.425154 -10.385,4.4687 -15.3811,-51.698195 6.4771,-6.383862 10.42921,36.893855 c 0.46717,1.731348 0.90687,3.448942 1.31912,5.152772 0.43968,1.70386 0.81068,3.22909 1.113,4.57567 0.35723,1.59393 0.68701,3.10541 0.98933,4.53444 0.4122,-1.89622 0.83816,-3.76495 1.27789,-5.60622 0.19234,-0.76947 0.38471,-1.58017 0.5771,-2.43211 0.19235,-0.85191 0.38473,-1.69009 0.57712,-2.51456 0.21982,-0.82442 0.42594,-1.60764 0.61833,-2.349656 0.21983,-0.769463 0.4122,-1.47024 0.57711,-2.102335 l 10.09943,-36.151856 7.54366,0 10.09944,36.151856 c 0.16484,0.632095 0.34347,1.332872 0.53589,2.102335 0.2198,0.742016 0.42591,1.525236 0.61833,2.349656 0.2198,0.79699 0.42591,1.62143 0.61833,2.47334 0.19232,0.85194 0.38469,1.66263 0.57712,2.43211 0.43965,1.84126 0.86561,3.72374 1.27789,5.64744 0.0274,0 0.15109,-0.46718 0.37099,-1.40156 0.2198,-0.96185 0.49461,-2.15728 0.82445,-3.58633 0.32972,-1.42903 0.68698,-2.96798 1.07178,-4.61688 0.41215,-1.67636 0.82438,-3.22906 1.23666,-4.658112 l 9.52456,-32.425151 8.94298,-4.468704"
       id="path4038"
       inkscape:connector-curvature="0"
       sodipodi:nodetypes="cccccccccccccccccccccccccccccccccccc" />
    <path
       inkscape:connector-curvature="0"
       d="m 471.933,96.897797 c -4e-5,7.804753 -1.71763,13.617073 -5.15277,17.436983 -3.43521,3.81993 -8.4231,5.72988 -14.96365,5.72988 -3.10543,0 -5.88105,-0.46718 -8.32688,-1.40155 -2.44587,-0.93437 -4.52071,-2.3634 -6.22456,-4.2871 -1.67637,-1.9237 -2.968,-4.32832 -3.87488,-7.21389 -0.87941,-2.91302 -1.31911,-6.33445 -1.31911,-10.264323 0,-15.389578 6.66425,-23.084378 19.99276,-23.084424 3.46263,4.6e-5 6.44438,0.480971 8.94521,1.442777 2.52826,0.961894 4.58937,2.404669 6.18334,4.32833 1.62136,1.923739 2.8168,4.328365 3.58632,7.213882 0.76944,2.885583 1.15418,6.252057 1.15422,10.099435 m -7.79099,0 c -4e-5,-3.462638 -0.27485,-6.320706 -0.82444,-8.574214 -0.52219,-2.253446 -1.3054,-4.05348 -2.34967,-5.400106 -1.01684,-1.346554 -2.26725,-2.280923 -3.75121,-2.803109 -1.48403,-0.549589 -3.1604,-0.824404 -5.02911,-0.824444 -1.89624,4e-5 -3.61383,0.288595 -5.15278,0.865666 -1.51149,0.549667 -2.80312,1.511518 -3.87488,2.885553 -1.07179,1.346626 -1.89624,3.14666 -2.47333,5.400106 -0.54964,2.253509 -0.82445,5.070355 -0.82445,8.450548 0,3.462683 0.30229,6.334493 0.90689,8.615433 0.60458,2.2535 1.42903,4.05353 2.47334,5.40011 1.07175,1.3466 2.32216,2.29471 3.75121,2.84433 1.4565,0.54964 3.03668,0.82445 4.74055,0.82444 1.8962,1e-5 3.61379,-0.26106 5.15278,-0.78322 1.53893,-0.54962 2.8443,-1.49773 3.91611,-2.84433 1.07174,-1.34658 1.89618,-3.16036 2.47332,-5.44133 0.57708,-2.28094 0.86563,-5.15275 0.86567,-8.615433"
       id="path4040" />
    <path
       d="m 507.17797,119.24022 0,-28.278417 c -3e-5,-2.171005 -0.13743,-3.984779 -0.41222,-5.441328 -0.27484,-1.456483 -0.74203,-2.624443 -1.40155,-3.503887 -0.63211,-0.906849 -1.47029,-1.538922 -2.51456,-1.89622 -1.04432,-0.384701 -2.32221,-0.577071 -3.83366,-0.577111 -1.56647,4e-5 -2.98176,0.316077 -4.24588,0.94811 -1.26417,0.604631 -2.34969,1.497777 -3.25656,2.679442 -0.87942,1.154256 -1.56645,2.597031 -2.06111,4.32833 -0.4672,1.703881 -0.70079,3.668803 -0.70077,5.894773 l -0.73976,20.313628 -6.63902,5.53268 0,-35.080078 c 0,-0.934334 -0.0137,-1.909924 -0.0412,-2.926775 0,-1.044256 -0.0137,-2.019847 -0.0412,-2.926775 -0.0275,-0.934328 -0.055,-1.731289 -0.0825,-2.390887 -0.0274,-0.659511 0.43817,4.447207 0.16413,0.637271 l 6.51459,-4.468703 c 0.0275,0.137451 0.3015,3.061995 0.32905,3.666543 0.0275,0.604635 0.0549,1.305412 0.0825,2.102332 0.0549,0.769522 0.0962,1.566483 0.12367,2.390887 0.0275,0.797 0.0412,1.470295 0.0412,2.019887 l 0.12367,0 c 0.65954,-1.291591 1.37405,-2.459551 2.14355,-3.503886 0.76946,-1.044254 1.66261,-1.923659 2.67944,-2.63822 1.04427,-0.741955 2.22598,-1.305325 3.54511,-1.690109 1.34657,-0.412177 2.89927,-0.618288 4.65811,-0.618334 3.38018,4.6e-5 6.04588,0.673341 7.9971,2.019888 1.97862,1.346634 3.3527,3.490184 4.12221,6.430661 l 0.12367,0 c 0.65952,-1.291591 1.40151,-2.459551 2.226,-3.503886 0.82441,-1.044254 1.78625,-1.923659 2.88556,-2.63822 1.09921,-0.741955 2.33587,-1.305325 3.70999,-1.690109 1.37403,-0.412177 2.94047,-0.618288 4.69933,-0.618334 2.25342,4.6e-5 4.19086,0.302342 5.81233,0.906889 1.64883,0.604636 2.99541,1.539004 4.03978,2.803108 1.04423,1.264188 1.81371,2.899332 2.30843,4.90544 0.49461,1.9787 0.74194,4.342103 0.74201,7.090217 l -0.24659,25.252493 -7.09096,4.4687 0,-28.278417 c -6e-5,-2.171005 -0.13747,-3.984779 -0.41223,-5.441328 -0.27487,-1.456483 -0.74205,-2.624443 -1.40155,-3.503887 -0.63213,-0.906849 -1.47031,-1.538922 -2.51455,-1.89622 -1.04435,-0.384701 -2.32224,-0.577071 -3.83367,-0.577111 -1.56649,4e-5 -2.98178,0.302335 -4.24588,0.906889 -1.26419,0.577148 -2.34971,1.442814 -3.25656,2.596997 -0.87944,1.154257 -1.56648,2.597032 -2.0611,4.328329 -0.46723,1.731363 -0.70082,3.737507 -0.70078,6.01844 l 0.24659,21.803188 -7.58415,4.04312"
       id="path4042"
       inkscape:connector-curvature="0"
       sodipodi:nodetypes="cccccccccsccsccsccccccccccccccscccccccccccccccccccc" />
    <path
       d="m 557.30416,98.505462 c -10e-6,2.335938 0.23358,4.493238 0.70077,6.471878 0.49466,1.9512 1.23665,3.64131 2.226,5.07034 1.0168,1.40155 2.30843,2.50082 3.87488,3.29777 1.56643,0.76948 3.4489,1.15422 5.64745,1.15422 3.2153,0 5.78482,-0.64581 7.70855,-1.93745 1.95115,-1.29161 1.93046,-0.90343 2.61753,-2.8821 l 8.69027,-0.89095 c -0.46722,1.23667 -1.96415,3.20969 -2.81604,4.47384 -0.82447,1.23666 -1.93747,2.3634 -3.33899,3.38022 -1.40159,0.98933 -3.1604,1.81377 -5.27644,2.47332 -2.08862,0.63208 -4.61692,0.94811 -7.58488,0.94811 -6.59557,0 -11.62467,-1.96491 -15.08732,-5.89477 -3.43519,-3.92984 -5.15278,-9.76964 -5.15278,-17.519426 0,-4.177155 0.52215,-7.708518 1.56645,-10.594101 1.04428,-2.912999 2.47332,-5.276402 4.28711,-7.090216 1.81376,-1.813734 3.92983,-3.119102 6.34821,-3.916108 2.41835,-0.824398 5.00161,-1.23662 7.74978,-1.236666 3.73745,4.6e-5 6.85658,0.604637 9.35743,1.813777 2.52826,1.209227 4.54814,2.885594 6.05966,5.029107 1.53892,2.116108 2.62444,4.616919 3.25655,7.502437 0.65952,2.885581 0.98929,6.004724 0.98933,9.357436 l 0,0.989332 -31.82352,0 m 24.15619,-5.688661 c -0.41225,-4.699298 -1.60769,-8.120736 -3.58632,-10.264324 -1.9787,-2.170996 -4.82303,-3.256513 -8.53299,-3.256553 -1.23669,4e-5 -2.54206,0.206151 -3.91611,0.618333 -1.34661,0.38478 -2.59701,1.085556 -3.75122,2.102331 -1.15424,1.016851 -2.12982,2.404663 -2.92678,4.163442 -0.79697,1.731362 -1.25041,3.943618 -1.36033,6.636771 l 24.07375,0"
       id="path4044"
       inkscape:connector-curvature="0"
       sodipodi:nodetypes="ccccsccccccscscccccccccccccccccc" />
    <path
       d="m 626.92842,119.24022 0,-28.278417 c -3e-5,-2.171005 -0.16492,-3.984779 -0.49466,-5.441328 -0.30233,-1.456483 -0.81074,-2.624443 -1.52523,-3.503887 -0.71455,-0.906849 -1.66265,-1.538922 -2.84433,-1.89622 -1.15424,-0.384701 -2.59702,-0.577071 -4.32833,-0.577111 -1.75883,4e-5 -3.35276,0.316077 -4.78177,0.94811 -1.40157,0.604631 -2.61076,1.497777 -3.62755,2.679442 -0.98935,1.154256 -1.75883,2.597031 -2.30844,4.32833 -0.54965,1.703881 -0.82446,3.668803 -0.82444,5.894773 l 0,21.944168 -7.42,3.90214 0,-35.080078 c -1e-5,-0.934334 -0.0137,-1.909924 -0.0412,-2.926775 -10e-6,-1.044256 -0.0137,-2.019847 -0.0412,-2.926775 -0.0275,-0.934328 0.0287,-0.213792 8.8e-4,-0.873389 -0.0275,-0.659511 -0.0131,0.142976 -0.0406,-0.04943 l 6.92403,-3.251779 c 0.0274,0.137451 0.013,1.014282 0.0406,1.61883 0.0274,0.604636 0.0549,1.305412 0.0825,2.102332 0.0549,0.769522 0.0962,1.566483 0.12367,2.390887 0.0275,0.797 0.0412,1.470295 0.0412,2.019887 l 0.12367,0 c 0.7145,-1.29159 1.49772,-2.459551 2.34967,-3.503886 0.85191,-1.044253 1.84124,-1.923659 2.96799,-2.638219 1.12672,-0.741956 2.41835,-1.305325 3.87488,-1.69011 1.4565,-0.412177 3.14661,-0.618287 5.07034,-0.618333 2.4733,4.6e-5 4.60311,0.302341 6.38944,0.906888 1.78625,0.604636 3.25651,1.539005 4.41077,2.803109 1.15418,1.264187 1.99236,2.899332 2.51455,4.905439 0.54959,1.978701 0.82441,4.342103 0.82444,7.090217 l -0.33494,25.530019 -7.12627,4.19118"
       id="path4046"
       inkscape:connector-curvature="0"
       sodipodi:nodetypes="cccccccccsccsccsccccccccccccccccc" />
  </g>
</svg>
